HIERARCHY
ROOT Hips
{
	OFFSET -0.001795 -0.223333 0.028219
	CHANNELS 6 Xposition Yposition Zposition Zrotation Yrotation Xrotation 
	JOINT LeftUpLeg
	{
		OFFSET 0.069520 -0.091406 -0.006815
		CHANNELS 3 Zrotation Yrotation Xrotation
		JOINT LeftLeg
		{
			OFFSET 0.034277 -0.375199 -0.004496
			CHANNELS 3 Zrotation Yrotation Xrotation
			JOINT LeftFoot
			{
				OFFSET -0.013596 -0.397961 -0.043693
				CHANNELS 3 Zrotation Yrotation Xrotation
				JOINT LeftToe
				{
					OFFSET 0.026358 -0.055791 0.119288
					CHANNELS 3 Zrotation Yrotation Xrotation
					End Site
					{
						OFFSET 0.000000 0.000000 0.000000
					}
				}
			}
		}
	}
	JOINT RightUpLeg
	{
		OFFSET -0.067670 -0.090522 -0.004320
		CHANNELS 3 Zrotation Yrotation Xrotation
		JOINT RightLeg
		{
			OFFSET -0.038290 -0.382569 -0.008850
			CHANNELS 3 Zrotation Yrotation Xrotation
			JOINT RightFoot
			{
				OFFSET 0.015774 -0.398415 -0.042312
				CHANNELS 3 Zrotation Yrotation Xrotation
				JOINT RightToe
				{
					OFFSET -0.025372 -0.048144 0.123348
					CHANNELS 3 Zrotation Yrotation Xrotation
					End Site
					{
						OFFSET 0.000000 0.000000 0.000000
					}
				}
			}
		}
	}
	JOINT Spine
	{
		OFFSET -0.002533 0.108963 -0.026696
		CHANNELS 3 Zrotation Yrotation Xrotation
		JOINT Spine1
		{
			OFFSET 0.005487 0.135180 0.001092
			CHANNELS 3 Zrotation Yrotation Xrotation
			JOINT Spine2
			{
				OFFSET 0.001457 0.052922 0.025425
				CHANNELS 3 Zrotation Yrotation Xrotation
				JOINT Neck
				{
					OFFSET -0.002778 0.213870 -0.042857
					CHANNELS 3 Zrotation Yrotation Xrotation
					JOINT Head
					{
						OFFSET 0.005152 0.064970 0.051349
						CHANNELS 3 Zrotation Yrotation Xrotation
						End Site
						{
							OFFSET 0.000000 0.000000 0.000000
						}
					}
				}
				JOINT LeftShoulder
				{
					OFFSET 0.078845 0.121749 -0.034090
					CHANNELS 3 Zrotation Yrotation Xrotation
					JOINT LeftArm
					{
						OFFSET 0.090977 0.030469 -0.008868
						CHANNELS 3 Zrotation Yrotation Xrotation
						JOINT LeftForeArm
						{
							OFFSET 0.259612 -0.012772 -0.027456
							CHANNELS 3 Zrotation Yrotation Xrotation
							JOINT LeftHand
							{
								OFFSET 0.249234 0.008986 -0.001171
								CHANNELS 3 Zrotation Yrotation Xrotation
								End Site
								{
									OFFSET 0.000000 0.000000 0.000000
								}
							}
						}
					}
				}
				JOINT RightShoulder
				{
					OFFSET -0.081759 0.118833 -0.038615
					CHANNELS 3 Zrotation Yrotation Xrotation
					JOINT RightArm
					{
						OFFSET -0.096012 0.032551 -0.009143
						CHANNELS 3 Zrotation Yrotation Xrotation
						JOINT RightForeArm
						{
							OFFSET -0.253742 -0.013329 -0.021401
							CHANNELS 3 Zrotation Yrotation Xrotation
							JOINT RightHand
							{
								OFFSET -0.255298 0.007772 -0.005559
								CHANNELS 3 Zrotation Yrotation Xrotation
								End Site
								{
									OFFSET 0.000000 0.000000 0.000000
								}
							}
						}
					}
				}
			}
		}
	}
}
MOTION
Frames: 5
Frame Time: 0.050000
-0.027298 0.513605 0.312290 -4.248432 -6.375944 90.628900 1.698951 -1.146877 -8.567843 -7.644924 3.936220 32.453444 -3.387105 -1.143857 16.749235 0.000000 0.000000 0.000000 -8.494358 2.995870 -9.145110 9.601594 -1.645993 28.180542 -4.622897 -11.774941 5.419955 0.000000 0.000000 0.000000 3.170604 -2.084691 15.727561 -0.318225 1.016402 -32.061787 -4.300780 11.870655 26.202658 14.222118 0.359911 -47.897431 0.000000 0.000000 0.000000 42.367816 -5.906292 4.365462 13.063359 -63.765088 -11.712792 91.270556 -16.421164 -10.157216 0.000000 0.000000 0.000000 -31.491441 1.427450 2.129632 -24.107744 67.174917 -15.253762 -109.007605 10.605498 1.182727 0.000000 0.000000 0.000000 
-0.027472 0.511841 0.310321 -4.911430 -6.871251 90.915938 1.885106 -1.189012 -8.692421 -8.562196 3.884004 28.673446 -2.898901 0.295062 20.037331 0.000000 0.000000 0.000000 -8.510999 3.020130 -9.176183 9.022538 -1.264055 25.633950 -4.468594 -11.949771 8.639784 0.000000 0.000000 0.000000 2.641957 -1.779234 15.470273 -0.318185 1.094279 -33.179056 -4.232736 13.227162 27.007203 14.796583 0.323389 -48.112427 0.000000 0.000000 0.000000 44.068172 -4.974745 4.574927 18.892751 -64.443173 -15.706789 88.803288 -14.358785 -8.543641 0.000000 0.000000 0.000000 -30.968066 1.186280 1.890184 -23.966089 67.846442 -15.032651 -105.579896 11.455328 0.264470 0.000000 0.000000 0.000000 
-0.027846 0.509167 0.308887 -3.668499 -6.622284 91.254893 1.160142 -1.068471 -9.094546 -6.302595 2.534651 26.173886 -3.133769 0.683395 22.018017 0.000000 0.000000 0.000000 -7.427764 2.721649 -8.526968 8.151917 -1.071361 24.591989 -4.124607 -11.905270 12.690434 0.000000 0.000000 0.000000 3.637853 -2.322705 15.527846 -1.213688 1.110593 -32.762517 -4.766985 11.367889 26.210667 15.119243 0.111289 -47.507225 0.000000 0.000000 0.000000 45.055704 -3.722967 4.287784 16.616171 -63.032612 -13.016263 86.836473 -10.205076 -4.483150 0.000000 0.000000 0.000000 -31.952293 1.640054 2.357835 -20.566450 69.020509 -13.799098 -103.336798 11.042583 0.165768 0.000000 0.000000 0.000000 
-0.028415 0.506193 0.307679 -3.885193 -6.987745 92.028134 0.822571 -0.967604 -8.818880 -6.292708 2.169833 22.848962 -1.825634 2.596016 22.763443 0.000000 0.000000 0.000000 -7.897415 2.876979 -8.525553 8.160866 -1.108150 24.768820 -3.711608 -11.742271 16.354910 0.000000 0.000000 0.000000 3.521830 -2.204426 14.326372 -0.675131 1.039669 -32.063723 -5.516311 12.006698 25.746825 18.414104 -0.499658 -47.168349 0.000000 0.000000 0.000000 46.082983 -1.782037 4.521201 16.880334 -61.870856 -13.113560 82.519733 -5.979176 -1.360947 0.000000 0.000000 0.000000 -30.974495 1.657778 2.323557 -18.373062 66.089016 -11.756936 -95.727245 8.525785 2.681619 0.000000 0.000000 0.000000 
-0.029175 0.502578 0.306586 -3.751350 -7.327592 92.778525 0.606675 -0.818812 -7.211833 -5.581307 1.690338 19.979254 -1.698269 2.749635 23.013682 0.000000 0.000000 0.000000 -7.339322 2.727213 -8.092128 7.089488 -0.806000 24.238582 -1.943801 -9.741817 20.496915 0.000000 0.000000 0.000000 2.134352 -1.457687 13.735067 0.007113 0.975115 -31.499316 -5.629016 11.364101 25.792597 18.032852 -0.347715 -47.494644 0.000000 0.000000 0.000000 48.541777 1.601537 4.783737 14.169976 -58.361683 -10.775646 71.080225 3.620545 4.286321 0.000000 0.000000 0.000000 -31.308998 -0.117267 1.998665 -11.234398 60.110370 -6.945582 -85.679575 3.835092 6.009680 0.000000 0.000000 0.000000 
